<svg width="78" height="14" viewBox="0 0 78 14" fill="none" xmlns="http://www.w3.org/2000/svg">
    <g clip-path="url(#clip0_4_387)">
        <path d="M12.8242 6.25505L10.3578 8.40755L11.0966 11.6122C11.1357 11.7798 11.1246 11.9551 11.0646 12.1163C11.0046 12.2776 10.8983 12.4175 10.7592 12.5187C10.6201 12.6199 10.4542 12.6778 10.2824 12.6853C10.1105 12.6927 9.94024 12.6493 9.79289 12.5605L6.99781 10.8652L4.20875 12.5605C4.06141 12.6493 3.89115 12.6927 3.71928 12.6853C3.54741 12.6778 3.38154 12.6199 3.24242 12.5187C3.10329 12.4175 2.99709 12.2776 2.93707 12.1163C2.87706 11.9551 2.8659 11.7798 2.905 11.6122L3.64273 8.41083L1.17578 6.25505C1.0453 6.14251 0.950951 5.99396 0.904562 5.82802C0.858172 5.66208 0.861809 5.48613 0.915016 5.32225C0.968223 5.15836 1.06863 5.01384 1.20365 4.90679C1.33867 4.79974 1.50229 4.73494 1.67398 4.72052L4.9257 4.43888L6.195 1.41138C6.26128 1.25252 6.37309 1.11682 6.51634 1.02138C6.65958 0.925929 6.82787 0.875 7 0.875C7.17213 0.875 7.34042 0.925929 7.48366 1.02138C7.62691 1.11682 7.73872 1.25252 7.805 1.41138L9.07812 4.43888L12.3288 4.72052C12.5005 4.73494 12.6641 4.79974 12.7991 4.90679C12.9341 5.01384 13.0345 5.15836 13.0877 5.32225C13.1409 5.48613 13.1446 5.66208 13.0982 5.82802C13.0518 5.99396 12.9574 6.14251 12.827 6.25505H12.8242Z" fill="black"/>
    </g>
    <g clip-path="url(#clip1_4_387)">
        <path d="M28.8242 6.25505L26.3578 8.40755L27.0966 11.6122C27.1357 11.7798 27.1246 11.9551 27.0646 12.1163C27.0046 12.2776 26.8983 12.4175 26.7592 12.5187C26.6201 12.6199 26.4542 12.6778 26.2824 12.6853C26.1105 12.6927 25.9402 12.6493 25.7929 12.5605L22.9978 10.8652L20.2088 12.5605C20.0614 12.6493 19.8912 12.6927 19.7193 12.6853C19.5474 12.6778 19.3815 12.6199 19.2424 12.5187C19.1033 12.4175 18.9971 12.2776 18.9371 12.1163C18.8771 11.9551 18.8659 11.7798 18.905 11.6122L19.6427 8.41083L17.1758 6.25505C17.0453 6.14251 16.951 5.99396 16.9046 5.82802C16.8582 5.66208 16.8618 5.48613 16.915 5.32225C16.9682 5.15836 17.0686 5.01384 17.2036 4.90679C17.3387 4.79974 17.5023 4.73494 17.674 4.72052L20.9257 4.43888L22.195 1.41138C22.2613 1.25252 22.3731 1.11682 22.5163 1.02138C22.6596 0.925929 22.8279 0.875 23 0.875C23.1721 0.875 23.3404 0.925929 23.4837 1.02138C23.6269 1.11682 23.7387 1.25252 23.805 1.41138L25.0781 4.43888L28.3288 4.72052C28.5005 4.73494 28.6641 4.79974 28.7991 4.90679C28.9341 5.01384 29.0345 5.15836 29.0877 5.32225C29.1409 5.48613 29.1446 5.66208 29.0982 5.82802C29.0518 5.99396 28.9574 6.14251 28.827 6.25505H28.8242Z" fill="black"/>
    </g>
    <g clip-path="url(#clip2_4_387)">
        <path d="M44.8242 6.25505L42.3578 8.40755L43.0966 11.6122C43.1357 11.7798 43.1246 11.9551 43.0646 12.1163C43.0046 12.2776 42.8983 12.4175 42.7592 12.5187C42.6201 12.6199 42.4542 12.6778 42.2824 12.6853C42.1105 12.6927 41.9402 12.6493 41.7929 12.5605L38.9978 10.8652L36.2088 12.5605C36.0614 12.6493 35.8912 12.6927 35.7193 12.6853C35.5474 12.6778 35.3815 12.6199 35.2424 12.5187C35.1033 12.4175 34.9971 12.2776 34.9371 12.1163C34.8771 11.9551 34.8659 11.7798 34.905 11.6122L35.6427 8.41083L33.1758 6.25505C33.0453 6.14251 32.951 5.99396 32.9046 5.82802C32.8582 5.66208 32.8618 5.48613 32.915 5.32225C32.9682 5.15836 33.0686 5.01384 33.2036 4.90679C33.3387 4.79974 33.5023 4.73494 33.674 4.72052L36.9257 4.43888L38.195 1.41138C38.2613 1.25252 38.3731 1.11682 38.5163 1.02138C38.6596 0.925929 38.8279 0.875 39 0.875C39.1721 0.875 39.3404 0.925929 39.4837 1.02138C39.6269 1.11682 39.7387 1.25252 39.805 1.41138L41.0781 4.43888L44.3288 4.72052C44.5005 4.73494 44.6641 4.79974 44.7991 4.90679C44.9341 5.01384 45.0345 5.15836 45.0877 5.32225C45.1409 5.48613 45.1446 5.66208 45.0982 5.82802C45.0518 5.99396 44.9574 6.14251 44.827 6.25505H44.8242Z" fill="black"/>
    </g>
    <g clip-path="url(#clip3_4_387)">
        <path d="M60.8242 6.25505L58.3578 8.40755L59.0966 11.6122C59.1357 11.7798 59.1246 11.9551 59.0646 12.1163C59.0046 12.2776 58.8983 12.4175 58.7592 12.5187C58.6201 12.6199 58.4542 12.6778 58.2824 12.6853C58.1105 12.6927 57.9402 12.6493 57.7929 12.5605L54.9978 10.8652L52.2088 12.5605C52.0614 12.6493 51.8912 12.6927 51.7193 12.6853C51.5474 12.6778 51.3815 12.6199 51.2424 12.5187C51.1033 12.4175 50.9971 12.2776 50.9371 12.1163C50.8771 11.9551 50.8659 11.7798 50.905 11.6122L51.6427 8.41083L49.1758 6.25505C49.0453 6.14251 48.951 5.99396 48.9046 5.82802C48.8582 5.66208 48.8618 5.48613 48.915 5.32225C48.9682 5.15836 49.0686 5.01384 49.2036 4.90679C49.3387 4.79974 49.5023 4.73494 49.674 4.72052L52.9257 4.43888L54.195 1.41138C54.2613 1.25252 54.3731 1.11682 54.5163 1.02138C54.6596 0.925929 54.8279 0.875 55 0.875C55.1721 0.875 55.3404 0.925929 55.4837 1.02138C55.6269 1.11682 55.7387 1.25252 55.805 1.41138L57.0781 4.43888L60.3288 4.72052C60.5005 4.73494 60.6641 4.79974 60.7991 4.90679C60.9341 5.01384 61.0345 5.15836 61.0877 5.32225C61.1409 5.48613 61.1446 5.66208 61.0982 5.82802C61.0518 5.99396 60.9574 6.14251 60.827 6.25505H60.8242Z" fill="black"/>
    </g>
    <g clip-path="url(#clip4_4_387)">
        <path d="M76.8242 6.25505L74.3578 8.40755L75.0966 11.6122C75.1357 11.7798 75.1246 11.9551 75.0646 12.1163C75.0046 12.2776 74.8983 12.4175 74.7592 12.5187C74.6201 12.6199 74.4542 12.6778 74.2824 12.6853C74.1105 12.6927 73.9402 12.6493 73.7929 12.5605L70.9978 10.8652L68.2088 12.5605C68.0614 12.6493 67.8912 12.6927 67.7193 12.6853C67.5474 12.6778 67.3815 12.6199 67.2424 12.5187C67.1033 12.4175 66.9971 12.2776 66.9371 12.1163C66.8771 11.9551 66.8659 11.7798 66.905 11.6122L67.6427 8.41083L65.1758 6.25505C65.0453 6.14251 64.951 5.99396 64.9046 5.82802C64.8582 5.66208 64.8618 5.48613 64.915 5.32225C64.9682 5.15836 65.0686 5.01384 65.2036 4.90679C65.3387 4.79974 65.5023 4.73494 65.674 4.72052L68.9257 4.43888L70.195 1.41138C70.2613 1.25252 70.3731 1.11682 70.5163 1.02138C70.6596 0.925929 70.8279 0.875 71 0.875C71.1721 0.875 71.3404 0.925929 71.4837 1.02138C71.6269 1.11682 71.7387 1.25252 71.805 1.41138L73.0781 4.43888L76.3288 4.72052C76.5005 4.73494 76.6641 4.79974 76.7991 4.90679C76.9341 5.01384 77.0345 5.15836 77.0877 5.32225C77.1409 5.48613 77.1446 5.66208 77.0982 5.82802C77.0518 5.99396 76.9574 6.14251 76.827 6.25505H76.8242Z" fill="black"/>
    </g>
    <defs>
        <clipPath id="clip0_4_387">
            <rect width="14" height="14" fill="white"/>
        </clipPath>
        <clipPath id="clip1_4_387">
            <rect width="14" height="14" fill="white" transform="translate(16)"/>
        </clipPath>
        <clipPath id="clip2_4_387">
            <rect width="14" height="14" fill="white" transform="translate(32)"/>
        </clipPath>
        <clipPath id="clip3_4_387">
            <rect width="14" height="14" fill="white" transform="translate(48)"/>
        </clipPath>
        <clipPath id="clip4_4_387">
            <rect width="14" height="14" fill="white" transform="translate(64)"/>
        </clipPath>
    </defs>
</svg>
